<svg xmlns="http://www.w3.org/2000/svg" viewBox="0 0 512 512" width="512" height="512" role="img">
  <title>StellarExpert Token Hub icon</title>
  <desc>A dark circle with a glowing star formed from a hexagon and orbital rings, representing the Stellar blockchain</desc>

  <rect width="512" height="512" rx="112" fill="#050d1a"/>

  <circle cx="256" cy="256" r="210" fill="none" stroke="#0ea5e9" stroke-width="1" opacity="0.15"/>
  <circle cx="256" cy="256" r="168" fill="none" stroke="#0ea5e9" stroke-width="0.75" opacity="0.1"/>

  <line x1="256" y1="46"  x2="256" y2="466" stroke="#0ea5e9" stroke-width="0.5" opacity="0.1"/>
  <line x1="46"  y1="256" x2="466" y2="256" stroke="#0ea5e9" stroke-width="0.5" opacity="0.1"/>
  <line x1="100" y1="100" x2="412" y2="412" stroke="#0ea5e9" stroke-width="0.5" opacity="0.08"/>
  <line x1="412" y1="100" x2="100" y2="412" stroke="#0ea5e9" stroke-width="0.5" opacity="0.08"/>

  <polygon points="256,148 293,212 366,212 329,276 366,340 293,340 256,404 219,340 146,340 183,276 146,212 219,212"
           fill="none" stroke="#0ea5e9" stroke-width="1.5" opacity="0.2"/>

  <polygon points="256,176 283,222 336,222 309,268 336,314 283,314 256,360 229,314 176,314 203,268 176,222 229,222"
           fill="#0b1f38" stroke="#0ea5e9" stroke-width="1.5" opacity="0.5"/>

  <polygon points="256,195 279,235 322,235 300,275 322,315 279,315 256,355 233,315 190,315 212,275 190,235 233,235"
           fill="#0c2340" stroke="#38bdf8" stroke-width="1" opacity="0.7"/>

  <circle cx="256" cy="256" r="38" fill="#0d2847" stroke="#38bdf8" stroke-width="1.5"/>
  <circle cx="256" cy="256" r="24" fill="#0ea5e9" opacity="0.9"/>
  <circle cx="256" cy="256" r="14" fill="#7dd3fc"/>
  <circle cx="256" cy="256" r="6"  fill="#fff"/>

  <circle cx="256" cy="148" r="5" fill="#38bdf8" opacity="0.9"/>
  <circle cx="256" cy="364" r="5" fill="#38bdf8" opacity="0.9"/>
  <circle cx="146" cy="202" r="4" fill="#38bdf8" opacity="0.7"/>
  <circle cx="366" cy="202" r="4" fill="#38bdf8" opacity="0.7"/>
  <circle cx="146" cy="310" r="4" fill="#38bdf8" opacity="0.7"/>
  <circle cx="366" cy="310" r="4" fill="#38bdf8" opacity="0.7"/>

  <circle cx="256" cy="148" r="2.5" fill="#fff" opacity="0.9"/>
  <circle cx="256" cy="364" r="2.5" fill="#fff" opacity="0.9"/>
  <circle cx="146" cy="202" r="2"   fill="#fff" opacity="0.7"/>
  <circle cx="366" cy="202" r="2"   fill="#fff" opacity="0.7"/>
  <circle cx="146" cy="310" r="2"   fill="#fff" opacity="0.7"/>
  <circle cx="366" cy="310" r="2"   fill="#fff" opacity="0.7"/>

  <circle cx="156" cy="156" r="2" fill="#7dd3fc" opacity="0.5"/>
  <circle cx="356" cy="156" r="2" fill="#7dd3fc" opacity="0.5"/>
  <circle cx="156" cy="356" r="2" fill="#7dd3fc" opacity="0.5"/>
  <circle cx="356" cy="356" r="2" fill="#7dd3fc" opacity="0.5"/>
  <circle cx="88"  cy="256" r="2" fill="#7dd3fc" opacity="0.4"/>
  <circle cx="424" cy="256" r="2" fill="#7dd3fc" opacity="0.4"/>
  <circle cx="256" cy="88"  r="2" fill="#7dd3fc" opacity="0.4"/>
  <circle cx="256" cy="424" r="2" fill="#7dd3fc" opacity="0.4"/>
</svg>
